<svg xmlns="http://www.w3.org/2000/svg" width="1376" height="768" viewBox="0 0 1376 768">
<defs>

    <filter id="softShadow" x="-4%" y="-4%" width="108%" height="108%">
      <feDropShadow dx="0" dy="0" stdDeviation="2.2"
                    flood-color="#000000" flood-opacity="0.28"/>
    </filter>
    

    <filter id="tinyBlur">
      <feGaussianBlur stdDeviation="0.35"/>
    </filter>
    
</defs>
<rect x="0" y="0" width="100%" height="100%" fill="#ffffff"/>
<rect x="0" y="45" width="218" height="218" fill="#fff544" filter="url(#softShadow)"/>
<rect x="231" y="45" width="218" height="218" fill="#5dad55" filter="url(#softShadow)"/>
<rect x="464" y="45" width="218" height="218" fill="#3e7fba" filter="url(#softShadow)"/>
<rect x="693" y="45" width="218" height="218" fill="#de6aa0" filter="url(#softShadow)"/>
<rect x="927" y="45" width="218" height="218" fill="#db3731" filter="url(#softShadow)"/>
<rect x="1158" y="45" width="218" height="218" fill="#fff544" filter="url(#softShadow)"/>
<rect x="0" y="276" width="218" height="218" fill="#d5327d" filter="url(#softShadow)"/>
<rect x="1158" y="276" width="218" height="218" fill="#5ab1d8" filter="url(#softShadow)"/>
<rect x="0" y="508" width="218" height="218" fill="#3e7fba" filter="url(#softShadow)"/>
<rect x="231" y="508" width="218" height="218" fill="#de6aa0" filter="url(#softShadow)"/>
<rect x="464" y="508" width="218" height="218" fill="#8f3b98" filter="url(#softShadow)"/>
<rect x="693" y="508" width="218" height="218" fill="#fff544" filter="url(#softShadow)"/>
<rect x="927" y="508" width="218" height="218" fill="#c9dd3c" filter="url(#softShadow)"/>
<rect x="1158" y="508" width="218" height="218" fill="#3e7fba" filter="url(#softShadow)"/>
<text x="111" y="384" font-family="Arial, Helvetica, sans-serif" font-size="104" font-weight="700" text-anchor="middle" dominant-baseline="middle" fill="#000000" filter="url(#tinyBlur)">·</text>
<text x="337" y="384" font-family="Arial, Helvetica, sans-serif" font-size="104" font-weight="700" text-anchor="middle" dominant-baseline="middle" fill="#000000" filter="url(#tinyBlur)">w</text>
<text x="594" y="384" font-family="Arial, Helvetica, sans-serif" font-size="104" font-weight="700" text-anchor="middle" dominant-baseline="middle" fill="#000000" filter="url(#tinyBlur)">a</text>
<text x="810" y="384" font-family="Arial, Helvetica, sans-serif" font-size="104" font-weight="700" text-anchor="middle" dominant-baseline="middle" fill="#000000" filter="url(#tinyBlur)">d</text>
<text x="1038" y="384" font-family="Arial, Helvetica, sans-serif" font-size="104" font-weight="700" text-anchor="middle" dominant-baseline="middle" fill="#000000" filter="url(#tinyBlur)">t</text>
<text x="1268" y="384" font-family="Arial, Helvetica, sans-serif" font-size="104" font-weight="700" text-anchor="middle" dominant-baseline="middle" fill="#000000" filter="url(#tinyBlur)">·</text>
</svg>