<svg xmlns="http://www.w3.org/2000/svg" width="1376" height="768" viewBox="0 0 1376 768">
<rect x="0" y="0" width="100%" height="100%" fill="#ffffff"/>
<rect x="0" y="0" width="95" height="95" fill="#5dad55"/>
<rect x="0" y="100" width="95" height="95" fill="#5ab1d8"/>
<rect x="0" y="200" width="95" height="95" fill="#de6aa0"/>
<text x="50" y="230" font-family="Arial, Helvetica, sans-serif" font-size="80" font-weight="700" text-anchor="middle" dominant-baseline="middle" fill="#000000">.</text>
<rect x="0" y="300" width="95" height="95" fill="#5ab1d8"/>
<rect x="0" y="400" width="95" height="95" fill="#3e7fba"/>
<rect x="0" y="500" width="95" height="95" fill="#5dad55"/>
<rect x="100" y="0" width="95" height="95" fill="#8f3b98"/>
<rect x="100" y="100" width="95" height="95" fill="#db3731"/>
<text x="150" y="250" font-family="Arial, Helvetica, sans-serif" font-size="80" font-weight="700" text-anchor="middle" dominant-baseline="middle" fill="#000000">w</text>
<rect x="100" y="300" width="95" height="95" fill="#d5327d"/>
<rect x="100" y="400" width="95" height="95" fill="#5dad55"/>
<rect x="100" y="500" width="95" height="95" fill="#fff544"/>
<rect x="200" y="0" width="95" height="95" fill="#5ab1d8"/>
<rect x="200" y="100" width="95" height="95" fill="#de6aa0"/>
<text x="250" y="250" font-family="Arial, Helvetica, sans-serif" font-size="80" font-weight="700" text-anchor="middle" dominant-baseline="middle" fill="#000000">a</text>
<rect x="200" y="300" width="95" height="95" fill="#c9dd3c"/>
<rect x="200" y="400" width="95" height="95" fill="#8f3b98"/>
<rect x="200" y="500" width="95" height="95" fill="#db3731"/>
<rect x="300" y="0" width="95" height="95" fill="#d5327d"/>
<rect x="300" y="100" width="95" height="95" fill="#c9dd3c"/>
<text x="350" y="250" font-family="Arial, Helvetica, sans-serif" font-size="80" font-weight="700" text-anchor="middle" dominant-baseline="middle" fill="#000000">d</text>
<rect x="300" y="300" width="95" height="95" fill="#5ab1d8"/>
<rect x="300" y="400" width="95" height="95" fill="#de6aa0"/>
<rect x="300" y="500" width="95" height="95" fill="#d5327d"/>
<rect x="400" y="0" width="95" height="95" fill="#5ab1d8"/>
<rect x="400" y="100" width="95" height="95" fill="#5dad55"/>
<text x="450" y="250" font-family="Arial, Helvetica, sans-serif" font-size="80" font-weight="700" text-anchor="middle" dominant-baseline="middle" fill="#000000">t</text>
<rect x="400" y="300" width="95" height="95" fill="#8f3b98"/>
<rect x="400" y="400" width="95" height="95" fill="#d5327d"/>
<rect x="400" y="500" width="95" height="95" fill="#8f3b98"/>
<rect x="500" y="0" width="95" height="95" fill="#d5327d"/>
<rect x="500" y="100" width="95" height="95" fill="#c9dd3c"/>
<rect x="500" y="200" width="95" height="95" fill="#5ab1d8"/>
<text x="550" y="230" font-family="Arial, Helvetica, sans-serif" font-size="80" font-weight="700" text-anchor="middle" dominant-baseline="middle" fill="#000000">.</text>
<rect x="500" y="300" width="95" height="95" fill="#fff544"/>
<rect x="500" y="400" width="95" height="95" fill="#8f3b98"/>
<rect x="500" y="500" width="95" height="95" fill="#c9dd3c"/>
</svg>